STARTFONT 2.1
COMMENT Created by fdbbdf
FONT donz12
SIZE 12 78 78
FONTBOUNDINGBOX 65 94 -22 -54
STARTPROPERTIES 4
Ownership "  "
FONT_ASCENT 40
FONT_DESCENT 54
DEFAULT_CHAR 32
ENDPROPERTIES
CHARS 107
STARTCHAR ch-2
ENCODING -1 2
SWIDTH 0 0
DWIDTH 7 0
BBX 5 10 1 -1
BITMAP
2000
2000
0000
2000
2000
4000
8000
8800
8800
7000
ENDCHAR
STARTCHAR ch-3
ENCODING -1 3
SWIDTH 0 0
DWIDTH 7 0
BBX 5 10 1 -4
BITMAP
7800
8800
8000
8000
8000
8800
7000
2000
1000
6000
ENDCHAR
STARTCHAR ch-6
ENCODING -1 6
SWIDTH 0 0
DWIDTH 10 0
BBX 9 10 1 -1
BITMAP
3b80
4400
4400
4400
ff00
4400
4400
4400
4400
ee00
ENDCHAR
STARTCHAR ch-7
ENCODING -1 7
SWIDTH 0 0
DWIDTH 4 0
BBX 2 3 1 5
BITMAP
4000
8000
c000
ENDCHAR
STARTCHAR ch-8
ENCODING -1 8
SWIDTH 0 0
DWIDTH 5 0
BBX 1 10 2 -1
BITMAP
8000
8000
0000
0000
8000
8000
8000
8000
8000
8000
ENDCHAR
STARTCHAR ch-17
ENCODING -1 17
SWIDTH 0 0
DWIDTH 13 0
BBX 11 10 1 -1
BITMAP
3bc0
4440
4400
4440
ffc0
4440
4440
4440
4440
eee0
ENDCHAR
STARTCHAR ch-18
ENCODING -1 18
SWIDTH 0 0
DWIDTH 13 0
BBX 11 10 1 -1
BITMAP
3bc0
4440
4440
4440
ffc0
4440
4440
4440
4440
eee0
ENDCHAR
STARTCHAR ch-19
ENCODING -1 19
SWIDTH 0 0
DWIDTH 16 0
BBX 16 1 0 2
BITMAP
ffff
ENDCHAR
STARTCHAR ch-20
ENCODING -1 20
SWIDTH 0 0
DWIDTH 9 0
BBX 7 10 1 -1
BITMAP
3c00
4400
4000
4400
fc00
4400
4400
4400
4400
ee00
ENDCHAR
STARTCHAR ch-21
ENCODING -1 21
SWIDTH 0 0
DWIDTH 9 0
BBX 7 10 1 -1
BITMAP
3c00
4400
4400
4400
fc00
4400
4400
4400
4400
ee00
ENDCHAR
STARTCHAR ch-22
ENCODING -1 22
SWIDTH 0 0
DWIDTH 8 0
BBX 8 1 0 2
BITMAP
ff00
ENDCHAR
STARTCHAR ch-24
ENCODING -1 24
SWIDTH 0 0
DWIDTH 16 0
BBX 10 1 3 2
BITMAP
ffc0
ENDCHAR
STARTCHAR sp
ENCODING -1 32
SWIDTH 0 0
DWIDTH 9 0
BBX 0 0 0 0
BITMAP
ENDCHAR
STARTCHAR !
ENCODING -1 33
SWIDTH 0 0
DWIDTH 5 0
BBX 1 10 2 -2
BITMAP
8000
8000
8000
8000
8000
8000
8000
0000
8000
8000
ENDCHAR
STARTCHAR "
ENCODING -1 34
SWIDTH 0 0
DWIDTH 8 0
BBX 4 3 2 5
BITMAP
9000
9000
9000
ENDCHAR
STARTCHAR #
ENCODING -1 35
SWIDTH 0 0
DWIDTH 16 0
BBX 12 9 2 -1
BITMAP
0440
0440
3ff0
0880
1100
1100
ffc0
2200
2200
ENDCHAR
STARTCHAR $
ENCODING -1 36
SWIDTH 0 0
DWIDTH 8 0
BBX 5 11 2 -2
BITMAP
2000
7800
a800
a800
a000
7000
2800
a800
a800
f000
2000
ENDCHAR
STARTCHAR %
ENCODING -1 37
SWIDTH 0 0
DWIDTH 12 0
BBX 10 10 1 -1
BITMAP
7100
9e00
9200
9400
9580
6a40
0a40
1240
1240
2180
ENDCHAR
STARTCHAR &
ENCODING -1 38
SWIDTH 0 0
DWIDTH 12 0
BBX 10 9 1 -1
BITMAP
1800
2400
2400
19c0
7080
8900
8600
8640
7980
ENDCHAR
STARTCHAR '
ENCODING -1 39
SWIDTH 0 0
DWIDTH 4 0
BBX 2 3 1 5
BITMAP
c000
4000
8000
ENDCHAR
STARTCHAR (
ENCODING -1 40
SWIDTH 0 0
DWIDTH 5 0
BBX 4 13 1 -4
BITMAP
1000
2000
4000
4000
8000
8000
8000
8000
8000
4000
4000
2000
1000
ENDCHAR
STARTCHAR )
ENCODING -1 41
SWIDTH 0 0
DWIDTH 5 0
BBX 4 13 0 -4
BITMAP
8000
4000
2000
2000
1000
1000
1000
1000
1000
2000
2000
4000
8000
ENDCHAR
STARTCHAR *
ENCODING -1 42
SWIDTH 0 0
DWIDTH 8 0
BBX 5 5 1 3
BITMAP
2000
a800
7000
a800
2000
ENDCHAR
STARTCHAR +
ENCODING -1 43
SWIDTH 0 0
DWIDTH 16 0
BBX 9 9 3 -2
BITMAP
0800
0800
0800
0800
ff80
0800
0800
0800
0800
ENDCHAR
STARTCHAR ,
ENCODING -1 44
SWIDTH 0 0
DWIDTH 4 0
BBX 2 3 1 -3
BITMAP
c000
4000
8000
ENDCHAR
STARTCHAR -
ENCODING -1 45
SWIDTH 0 0
DWIDTH 5 0
BBX 3 1 1 3
BITMAP
e000
ENDCHAR
STARTCHAR .
ENCODING -1 46
SWIDTH 0 0
DWIDTH 4 0
BBX 1 2 1 -2
BITMAP
8000
8000
ENDCHAR
STARTCHAR /
ENCODING -1 47
SWIDTH 0 0
DWIDTH 8 0
BBX 37 51 -19 -29
BITMAP
000000004000
c00000009000
6180700ea000
3303f807a800
3e021c025000
66020c026000
3602a4024000
770404038000
3f84a8070000
0f83f00f0000
0fc1101f0000
07f0a07e0000
01f9f8fc0000
00fdf9f00000
007f5fe00000
003fffc00000
001fff800000
000fff000000
0007fe000000
0007fc000000
0007fc000000
0007fc000000
000ffc000000
000ffc000000
000ffc000000
000ffc000000
000db0000000
0003f8000000
0003f8000000
0003fc000000
0007fc000000
0007fc000000
0007bc000000
0007bc000000
0007bc000000
0007bc000000
0007bc000000
0007bc000000
0007bc000000
0003b8000000
0003b8000000
000fbe000000
01fffffc0000
01fffffc0000
010000040000
010ee4c40000
0108aaa40000
010eaaa40000
0102aec40000
010eea840000
01fffffc0000
ENDCHAR
STARTCHAR 0
ENCODING -1 48
SWIDTH 0 0
DWIDTH 8 0
BBX 40 49 -18 -24
BITMAP
0fffffffff00
080000000100
3ffffffffd00
200000000500
fffffffff500
800000001500
800000001500
800000001500
8f0000101500
888000101500
8840001c1500
884000501500
88472c901500
8848b2101500
8848a2101500
8888a2101500
8f07220c1500
800000001500
800000001500
800000001500
800000001500
800000001500
8f0000011500
888001011500
888002011500
888000011500
8f1ab2191500
8824ca211500
88248a201500
88248a251500
881a89991500
800000001500
800000001500
800000001500
800000001500
800000001500
800000001500
800000001500
800000001500
800000001500
800000001500
800000001500
800000001500
800000001500
800000001700
800000001400
800000001c00
800000001000
fffffffff000
ENDCHAR
STARTCHAR 1
ENCODING -1 49
SWIDTH 0 0
DWIDTH 8 0
BBX 40 49 -18 -24
BITMAP
0fffffffff00
080000000100
3ffffffffd00
200000000500
fffffffff500
800000001500
bfffffffd500
a00000005500
af0000105500
a88000105500
a840001c5500
a84000505500
a8472c905500
a848b2105500
a848a2105500
a888a2105500
af07220c5500
a00000005500
a00000005500
a00000005500
a00000005500
a00000005500
af0000015500
a88001015500
a88002015500
a88000015500
af1ab2195500
a824ca215500
a8248a205500
a8248a255500
a81a89995500
a00000005500
bfffffffd500
800000001500
800000001500
836db6d81500
836db6d81500
800000001500
8db6db6c1500
8db6db6c1500
800000001500
9b6db6d81500
9b6db6d81500
800000001500
81fffe001700
81fffe001400
800000001c00
800000001000
fffffffff000
ENDCHAR
STARTCHAR 2
ENCODING -1 50
SWIDTH 0 0
DWIDTH 8 0
BBX 41 19 -20 -8
BITMAP
3ffffffffe00
400000000100
800000000080
9b6db6db6c80
9b6db6db6c80
800000000080
8db6db6db080
8db6db6db080
800000000080
9b6db6db6c80
9b6db6db6c80
800000000080
8db6db6db080
8db6db6db080
800000000080
81ffffffc080
81ffffffc080
400000000100
3ffffffffe00
ENDCHAR
STARTCHAR 3
ENCODING -1 51
SWIDTH 0 0
DWIDTH 8 0
BBX 43 39 -22 -18
BITMAP
0ff204f8fc00
0ff30cfcfc00
018198ccc000
0180f0ccf000
018060f8f000
018060c0c000
018060c0fc00
018060c0fc00
000000000000
000000000000
0fffffffff80
100000000040
200000000020
26db6db6db20
26db6db6db20
200000000020
000036db6c20
01b636db6c20
024900000020
04926db6db20
09246db6db20
080580000020
0802b6db6c20
0800b6db6c20
080100000020
08027ffff020
08047ffff020
080400000040
10047fffff80
200800000000
401000000000
8020660c0000
0040670c0000
0000678c0000
000066cc0000
0000666c0000
0000663c0000
0000661c0000
0000660c0000
ENDCHAR
STARTCHAR 4
ENCODING -1 52
SWIDTH 0 0
DWIDTH 8 0
BBX 37 19 -17 -7
BITMAP
028000000000
010450800000
000c21800000
a01803000000
401803008000
000c0180c000
000600c06000
000300c03000
00033cb01800
0005c3881800
001c00041800
003000021800
802000021800
7c4000033000
23800003b000
10000004e000
098000084000
040000180000
03fffff00000
ENDCHAR
STARTCHAR 5
ENCODING -1 53
SWIDTH 0 0
DWIDTH 8 0
BBX 41 37 -20 -20
BITMAP
1ffffffff800
3ffffffffe00
7fffffffff00
780000001f00
f00000000780
e217db1e0380
e337db1f0380
71261b198700
39e61b198e00
38c71b198e00
1cc71b199c00
1cc61b199c00
0ec61b19b800
0ec7dbdf3800
06c7dbde7000
070000007000
03800000e000
0387fff0e000
01c7fff1c000
01c00001c000
00e000038000
00e000038000
007000070000
007000070000
0038000e0000
0038000e0000
001c001c0000
001c001c0000
000e00380000
000e00380000
000700700000
000700700000
000380e00000
000380e00000
0001c1c00000
0000ff800000
00007f000000
ENDCHAR
STARTCHAR 6
ENCODING -1 54
SWIDTH 0 0
DWIDTH 8 0
BBX 39 44 -20 -21
BITMAP
000000c00000
000001200000
000002100000
000004080000
000008040000
fffffc020000
800004010000
8003f4008000
800004004000
8003e4002000
800004001000
8001f4000800
800004000400
be0004aaaa00
800004000600
8fffe4000a00
800004001200
bfff04002200
800004004200
8ffff4008200
800004010200
800004020200
800004040200
8fffe4080200
800006100200
bfffc5200200
800004c00200
bfffe5200200
800006100200
9fff84080200
800004040200
bfffc4020200
800004010200
800004008200
81f004004200
800007fffe00
800004000000
800004000000
800004000000
800004000000
800004000000
800004000000
800004000000
fffffc000000
ENDCHAR
STARTCHAR 7
ENCODING -1 55
SWIDTH 0 0
DWIDTH 7 0
BBX 41 37 -20 -19
BITMAP
ffffffffff80
800008000080
800008000080
8b8008000080
8a4008fffc80
8a403e000080
8a4ce8000080
8a5288000080
8a52c8000080
ca5288000080
b38ce9fffc80
800008000080
800008000080
800008000080
800008000080
800008000080
9fffc9fffc80
800008000080
80003e000080
800008000080
800008000080
800008000080
9fffc9fffc80
800008000080
800008000080
800008000080
800008000080
800008000080
9fffc9fffc80
800008000080
800008000080
80003e000080
800008000080
800008000080
800008000080
800008000080
ffffffffff80
ENDCHAR
STARTCHAR 8
ENCODING -1 56
SWIDTH 0 0
DWIDTH 7 0
BBX 45 45 -22 -23
BITMAP
00003fe00000
0001c21c0000
000e02038000
003002006000
00c802009800
010800008400
020400010200
040400010100
080000000080
080200000080
100300000040
100180000040
2c01c00000a0
2301e0000220
2001e00008a0
4000e0002210
400070008050
400030022a90
800030088008
800010251548
800010804008
80000a149408
f80000a000f8
800002011008
800000884108
800000210448
800000082208
400000020090
400000008810
400000002090
200000000920
233e7c808220
2c2142c180a0
102142a28040
102142948040
082142888080
083e7c808080
042840808100
022440808200
012240808400
00e140809800
003000006000
000e00038000
0001c01c0000
00003fe00000
ENDCHAR
STARTCHAR 9
ENCODING -1 57
SWIDTH 0 0
DWIDTH 8 0
BBX 45 46 -22 -19
BITMAP
000000122000
000000084000
0000000300c0
00000034b330
000020048448
000040030488
000000084210
000100122250
00c200020510
0127000008a0
0215003610a0
040d004960a0
0805004100a0
100300a480a0
2001028c80a0
600186a100a0
200118430110
2f7d20427208
2945e0358800
294500150400
29450016a400
6f4d00160c00
a04500154800
204500150800
204500149000
204500225000
000000415000
003c00005000
001e00005000
281f00005000
500f80005000
000780005000
1403c0005000
2801e0005000
0000f0008800
0a0078010400
14003c000000
00001e000000
05001e000000
0a000f000000
000007000000
028003800000
050003800000
000001000000
014000000000
028000000000
ENDCHAR
STARTCHAR :
ENCODING -1 58
SWIDTH 0 0
DWIDTH 8 0
BBX 40 49 -18 -24
BITMAP
0fffffffff00
080000000100
3ffffffffd00
200000000500
fffffffff500
800000001500
bfffffffd500
a00000005500
af0000105500
a88000105500
a840001c5500
a84000505500
a8472c905500
a848b2105500
a848a2105500
a888a2105500
af07220c5500
a00000005500
a00000005500
a00000005500
a00000005500
a00000005500
af0000015500
a88001015500
a88002015500
a88000015500
af1ab2195500
a824ca215500
a8248a205500
a8248a255500
a81a89995500
a00000005500
bfffffffd500
800000001500
800000001500
836db6d81500
836db6d81500
800000001500
8db6db6c1500
8db6db6c1500
800000001500
9b6db6d81500
9b6db6d81500
800000001500
81fffe001700
81fffe001400
800000001c00
800000001000
fffffffff000
ENDCHAR
STARTCHAR ;
ENCODING -1 59
SWIDTH 0 0
DWIDTH 6 0
BBX 2 8 1 -4
BITMAP
c000
c000
0000
0000
c000
4000
4000
8000
ENDCHAR
STARTCHAR <
ENCODING -1 60
SWIDTH 0 0
DWIDTH 8 0
BBX 5 9 2 -1
BITMAP
0800
1000
2000
4000
8000
4000
2000
1000
0800
ENDCHAR
STARTCHAR =
ENCODING -1 61
SWIDTH 0 0
DWIDTH 8 0
BBX 28 45 -15 -26
BITMAP
00020000
00050000
00050000
00050000
00050000
00050000
00050000
00050000
00050000
00050000
00050000
00050000
00050000
00050000
00050000
00050000
00050000
001dfff0
00250020
005dfe40
00850080
017fe100
02000200
04ff8400
08000800
10001000
3fffe000
00050000
00050000
00050000
00050000
00050000
00050000
007dffe0
00850060
010500a0
02050140
04050280
08050500
10000a00
20001400
40002800
ffffd000
80006000
ffffc000
ENDCHAR
STARTCHAR >
ENCODING -1 62
SWIDTH 0 0
DWIDTH 8 0
BBX 40 42 -19 -21
BITMAP
00000003f800
000000040400
0000000bfa00
000000020800
000000020800
31f790020800
484450020800
844450040400
804450080200
804450095200
804790124900
804510124900
844490124900
484450124900
30445e124900
000000115100
000000100100
000000080200
000000080200
000000040400
000000040400
000000040400
000000040400
82f7ce040400
c68111040400
aa8111080200
928111080200
82e111100100
82811f124900
828111144500
828111144500
82f111144500
000000144500
000000144500
000000144500
000000124900
000000100100
000000100100
000000080200
000000080200
000000060c00
00000003f800
ENDCHAR
STARTCHAR ?
ENCODING -1 63
SWIDTH 0 0
DWIDTH 8 0
BBX 38 41 -19 -21
BITMAP
ffffffe00000
ffffffe00000
c00000600000
c8aa4e600000
6dab50c00000
6aaad2c00000
68924ec00000
300001800000
300001800000
300001810400
18000301fc00
1800030ffc00
1800030ffc00
0c00060dfc00
0c00060d0400
0c00060c0000
06000c0c0000
06000c0c0000
06000c0c0000
0300180c0000
03fff80c0000
03fff80c0000
0300180c0000
0300181e0000
03001ffe0000
03001ffe0000
0300181e0000
030018000000
03fff8000000
03fff8000000
000000000000
006180000000
006180000000
000c00000000
000c00000000
000000000000
000000000000
006000000000
006000000000
000300000000
000300000000
ENDCHAR
STARTCHAR @
ENCODING -1 64
SWIDTH 0 0
DWIDTH 16 0
BBX 27 27 -13 -13
BITMAP
00003fc0
00002040
00006060
00006060
00002040
fc003fc0
87001080
87001580
84000a80
84000000
84000000
84000000
85fff000
87fff800
85001000
87fffe00
44000400
3c000400
02000800
01001000
00806000
00804000
00804000
00804000
00804000
00ffc000
01ffe000
ENDCHAR
STARTCHAR A
ENCODING -1 65
SWIDTH 0 0
DWIDTH 2 0
BBX 18 41 2 -1
BITMAP
07f80000
1ffe0000
78070000
60038000
c0018000
c0018000
0000c000
0000c000
0000c000
0000c000
0000c000
0000c000
0001c000
00018000
00018000
00038000
00070000
000e0000
001c0000
00380000
00700000
00600000
00e00000
00c00000
00c00000
01c00000
01800000
01800000
01800000
01800000
01800000
01800000
00000000
00000000
00000000
00000000
00000000
03800000
03800000
03800000
03800000
ENDCHAR
STARTCHAR B
ENCODING -1 66
SWIDTH 0 0
DWIDTH 10 0
BBX 33 20 -11 -1
BITMAP
1c0088200000
2200d8210000
2200a9aa8000
221e8ab20000
1c1e8ba98000
081e00000000
0c2000000000
0a4000000000
098de0000000
080de0000000
080de0000000
080000000000
080f78000000
140f78000000
140f78000000
220000000000
220def000000
410def000000
410def000000
ffffffff8000
ENDCHAR
STARTCHAR C
ENCODING -1 67
SWIDTH 0 0
DWIDTH 1 0
BBX 18 20 -8 1
BITMAP
01e00000
0ffc0000
1ffe0000
3fff0000
7fff8000
7e1f8000
fc0fc000
fc0fc000
f8000000
f8000000
f8000000
f8000000
fc0fc000
fc0fc000
7e1f8000
7fff8000
3fff0000
1fff0000
0ffc0000
03f00000
ENDCHAR
STARTCHAR D
ENCODING -1 68
SWIDTH 0 0
DWIDTH 34 0
BBX 40 49 -1 -31
BITMAP
0fffffffff00
080000000100
080000000100
3ffffffffd00
200000000500
200000000500
fffffffff500
800000001500
800000001500
000000000000
000000000000
000000000000
000000000000
000000000000
000000000000
000000000000
000000000000
000000000000
000000000000
000000000000
800000001500
87ffffc01500
800000001500
800000001500
87fffffc1500
800000001500
800000001500
87fffff81500
800000001500
800000001500
87fffff01500
800000001500
800000001500
87ffffe01500
800000001500
800000001500
87fffffc1500
800000001500
800000001500
87fffffc1500
800000001500
800000001700
87fffff81400
800000001400
800000001400
800000001c00
800000001000
800000001000
fffffffff000
ENDCHAR
STARTCHAR E
ENCODING -1 69
SWIDTH 0 0
DWIDTH 11 0
BBX 9 9 1 -1
BITMAP
ff00
2100
2000
2200
3e00
2200
2000
2080
ff00
ENDCHAR
STARTCHAR F
ENCODING -1 70
SWIDTH 0 0
DWIDTH 41 0
BBX 45 37 -2 -3
BITMAP
00000007fff0
0000000ffff8
0000000c0018
3ffffffc0018
7ffffffc0018
e00000000018
c00000000018
c00000000018
c00000000018
c00000000018
c00000000018
c00000000018
c00000000018
c00000000018
c00000000018
c00000000018
c00000000018
c00000000018
c00000000018
c00000000018
c00000000018
c00000000018
c00000000018
c00000000018
c00000000018
c00000000018
c00000000018
c00000000018
c00000000018
c00000000018
c00000000018
c00000000018
c00000000018
c00000000018
c00000000018
fffffffffff8
fffffffffff8
ENDCHAR
STARTCHAR G
ENCODING -1 71
SWIDTH 0 0
DWIDTH 12 0
BBX 10 9 1 -1
BITMAP
3e80
4180
8080
8000
83c0
8080
8080
4080
3f00
ENDCHAR
STARTCHAR H
ENCODING -1 72
SWIDTH 0 0
DWIDTH 1 0
BBX 17 20 -8 1
BITMAP
f80f8000
f80f8000
f80f8000
f80f8000
f80f8000
f80f8000
f80f8000
ffff8000
ffff8000
ffff8000
ffff8000
ffff8000
f80f8000
f80f8000
f80f8000
f80f8000
f80f8000
f80f8000
f80f8000
f80f8000
ENDCHAR
STARTCHAR I
ENCODING -1 73
SWIDTH 0 0
DWIDTH 7 0
BBX 5 9 1 -1
BITMAP
f800
2000
2000
2000
2000
2000
2000
2000
f800
ENDCHAR
STARTCHAR J
ENCODING -1 74
SWIDTH 0 0
DWIDTH 7 0
BBX 7 9 0 -1
BITMAP
3e00
0800
0800
0800
0800
0800
0800
c800
7000
ENDCHAR
STARTCHAR K
ENCODING -1 75
SWIDTH 0 0
DWIDTH 13 0
BBX 11 9 1 -1
BITMAP
fbc0
2100
2200
2400
3800
2400
2200
2100
f9e0
ENDCHAR
STARTCHAR L
ENCODING -1 76
SWIDTH 0 0
DWIDTH 10 0
BBX 9 9 1 -1
BITMAP
f800
2000
2000
2000
2000
2000
2080
2100
ff00
ENDCHAR
STARTCHAR M
ENCODING -1 77
SWIDTH 0 0
DWIDTH 21 0
BBX 41 34 1 1
BITMAP
3ffffffffe00
400000000100
800000000080
9ffffffffc80
90001c000480
900060000480
900080000480
900100000480
900300070480
90030008c480
900300182480
901fe0211480
902810241480
904408215480
908204241480
917dfe102480
9044080fc480
9045e8038480
9fc52fc38480
9045e83ffc80
904408038480
904408000480
900000000480
900000000480
900000000480
900000000480
9ffffffffc80
800000000080
860000003080
890000004880
890000004880
860000003080
400000000100
3ffffffffe00
ENDCHAR
STARTCHAR N
ENCODING -1 78
SWIDTH 0 0
DWIDTH 13 0
BBX 11 9 1 -1
BITMAP
e3e0
3080
2880
2880
2480
2280
2280
2180
f880
ENDCHAR
STARTCHAR O
ENCODING -1 79
SWIDTH 0 0
DWIDTH 11 0
BBX 9 9 1 -1
BITMAP
3e00
4100
8080
8080
8080
8080
8080
4100
3e00
ENDCHAR
STARTCHAR P
ENCODING -1 80
SWIDTH 0 0
DWIDTH 9 0
BBX 7 9 1 -1
BITMAP
fc00
2200
2200
2200
3c00
2000
2000
2000
f800
ENDCHAR
STARTCHAR Q
ENCODING -1 81
SWIDTH 0 0
DWIDTH 11 0
BBX 9 12 1 -4
BITMAP
3e00
4100
8080
8080
8080
8080
8080
4100
3e00
0800
0400
0380
ENDCHAR
STARTCHAR R
ENCODING -1 82
SWIDTH 0 0
DWIDTH 11 0
BBX 10 9 1 -1
BITMAP
fe00
2100
2100
2100
3e00
2400
2200
2100
f9c0
ENDCHAR
STARTCHAR S
ENCODING -1 83
SWIDTH 0 0
DWIDTH 9 0
BBX 6 9 1 -1
BITMAP
7400
8c00
8400
6000
1800
0400
8400
c400
b800
ENDCHAR
STARTCHAR T
ENCODING -1 84
SWIDTH 0 0
DWIDTH 35 0
BBX 47 44 -6 -39
BITMAP
00007ffe0000
003f8001f800
1fc0000007f0
100000000010
17ffffffffd0
140000000050
140000000050
140000000050
140000000050
140000000050
140000000050
140000000050
140000000050
140000000050
140000000050
140000000050
140000000050
140000000050
140000000050
140000000050
140000000050
140000000050
140000000050
140000000050
140000000050
140000000050
140000000050
140000000050
140000000050
140000000050
17ffffffffd0
100000000010
1fc0000007f0
003f0001f800
0000fffe0000
000000000000
07ffffffffc0
080000000020
111111111110
200000000008
444444444444
fffffffffffe
800000000002
fffffffffffe
ENDCHAR
STARTCHAR U
ENCODING -1 85
SWIDTH 0 0
DWIDTH 13 0
BBX 11 9 1 -1
BITMAP
fbe0
2080
2080
2080
2080
2080
2080
2080
1f00
ENDCHAR
STARTCHAR V
ENCODING -1 86
SWIDTH 0 0
DWIDTH 11 0
BBX 9 9 1 -1
BITMAP
e380
4100
4100
2200
2200
1400
1400
0800
0800
ENDCHAR
STARTCHAR W
ENCODING -1 87
SWIDTH 0 0
DWIDTH 1 0
BBX 21 20 -10 1
BITMAP
ff8ff800
9c89c800
1c01c000
1c01c000
1c01c000
1c01c000
1c01c000
1fffc000
1fffc000
1fffc000
1fffc000
1fffc000
1c01c000
1c01c000
1c01c000
1c01c000
1c01c000
9c89c800
ff8ff800
ff8ff800
ENDCHAR
STARTCHAR X
ENCODING -1 88
SWIDTH 0 0
DWIDTH 1 0
BBX 18 20 -10 0
BITMAP
00f8c000
07ffc000
1fe7c000
3f81c000
3f00c000
7f00c000
7f004000
fe000000
fe000000
fe000000
fe000000
fe000000
ff000000
7f000000
7f000000
3f80c000
3f81c000
1fe78000
07ff0000
01fc0000
ENDCHAR
STARTCHAR Y
ENCODING -1 89
SWIDTH 0 0
DWIDTH 11 0
BBX 9 9 1 -1
BITMAP
f780
2200
2200
1400
1400
0800
0800
0800
3e00
ENDCHAR
STARTCHAR Z
ENCODING -1 90
SWIDTH 0 0
DWIDTH 10 0
BBX 9 9 1 -1
BITMAP
ff00
8200
8400
0800
1000
2000
4080
8100
ff00
ENDCHAR
STARTCHAR [
ENCODING -1 91
SWIDTH 0 0
DWIDTH 5 0
BBX 3 13 1 -4
BITMAP
e000
8000
8000
8000
8000
8000
8000
8000
8000
8000
8000
8000
e000
ENDCHAR
STARTCHAR \
ENCODING -1 92
SWIDTH 0 0
DWIDTH 8 0
BBX 5 9 2 -1
BITMAP
8000
4000
4000
2000
2000
1000
1000
0800
0800
ENDCHAR
STARTCHAR ]
ENCODING -1 93
SWIDTH 0 0
DWIDTH 5 0
BBX 3 13 1 -4
BITMAP
e000
2000
2000
2000
2000
2000
2000
2000
2000
2000
2000
2000
e000
ENDCHAR
STARTCHAR ^
ENCODING -1 94
SWIDTH 0 0
DWIDTH 9 0
BBX 7 8 1 -1
BITMAP
1000
3800
5400
9200
1000
1000
1000
1000
ENDCHAR
STARTCHAR _
ENCODING -1 95
SWIDTH 0 0
DWIDTH 8 0
BBX 8 1 0 -2
BITMAP
ff00
ENDCHAR
STARTCHAR `
ENCODING -1 96
SWIDTH 0 0
DWIDTH 4 0
BBX 2 3 1 5
BITMAP
4000
8000
c000
ENDCHAR
STARTCHAR a
ENCODING -1 97
SWIDTH 0 0
DWIDTH 7 0
BBX 41 37 -20 -19
BITMAP
ffffffffff80
800008000080
881008000080
983008000080
883008fffc80
88503e000080
885008000080
889008000080
88f808000080
881008000080
9c1009fffc80
800008000080
800008000080
800008000080
800008000080
800008000080
9fffc9fffc80
800008000080
80003e000080
800008000080
800008000080
800008000080
9fffc9fffc80
800008000080
800008000080
800008000080
800008000080
800008000080
9fffc9fffc80
800008000080
800008000080
80003e000080
800008000080
800008000080
800008000080
800008000080
ffffffffff80
ENDCHAR
STARTCHAR b
ENCODING -1 98
SWIDTH 0 0
DWIDTH 9 0
BBX 45 35 -22 -16
BITMAP
fffffffffff8
800000000008
bfffffffffe8
a00000000028
a00000000028
a7fc00021028
a40400000128
a5f400000028
a4043ff80028
a5b420080028
a4042f080028
a5f4207fe028
a4042f402028
a5e4205fa028
a40420402028
a5f43fde2028
a40400402028
a7fc005fa028
a00000402028
a00000402028
a0000047a028
a00000402028
a00000402028
a000007fe028
a00000000028
a00000000028
a00000000028
a00000000028
a00000000028
a00000000028
a00000000028
a00000000028
bfffffffffe8
800000000008
fffffffffff8
ENDCHAR
STARTCHAR c
ENCODING -1 99
SWIDTH 0 0
DWIDTH 7 0
BBX 45 45 -22 -23
BITMAP
00003fe00000
0001c21c0000
000e02038000
003002006000
00c802009800
010800008400
020402010200
040402010100
080002000080
080002000080
100002000040
100002000040
2c00020001a0
230002000620
200002000020
400002000010
400002018010
400002020010
8000020c0008
800002100008
800002600008
800002800008
f800030000f8
800000000008
800000000008
800000000008
800000000008
400000000010
400000000010
400000000010
200000000020
230000000620
2c00000001a0
100000000040
100000000040
080000000080
080000000080
040400010100
020400010200
010800008400
00c802009800
003002006000
000e02038000
0001c21c0000
00003fe00000
ENDCHAR
STARTCHAR d
ENCODING -1 100
SWIDTH 0 0
DWIDTH 9 0
BBX 36 56 -17 -29
BITMAP
fffffffff000
fffffffff000
c00000003000
c00000003000
c00000003000
c00000003000
c00000003000
c7913be03000
c41110803000
c40a10803000
c70410803000
c40a10803000
c41110803000
c79138803000
c00000003000
c00000003000
c00000003000
c00000003000
c00000003000
c00000003000
c00000003000
c00000003000
c00000003000
c00000003000
c00000003000
c00000003000
c00000003000
c00000183000
c00000243000
c00000243000
c00000183000
c00000003000
c00000003000
c00000003000
c00000003000
c00000003000
c00000003000
c00000003000
c00000003000
c00000003000
c00000003000
c00000003000
c00000003000
c00000003000
c00000003000
c00000003000
c00000003000
c00000003000
c00000003000
c00000003000
c00000003000
c00000003000
c00000003000
c00000003000
fffffffff000
fffffffff000
ENDCHAR
STARTCHAR e
ENCODING -1 101
SWIDTH 0 0
DWIDTH 8 0
BBX 40 49 -18 -24
BITMAP
0fffffffff00
080000000100
3ffffffffd00
200000000500
fffffffff500
800000001500
800000001500
800000001500
800000001500
800000001500
800000001500
800000001500
800000001500
800000001500
800000001500
800000001500
800000001500
800000001500
800000001500
800000001500
800000001500
800000001500
800000001500
800000001500
800000001500
800000001500
800000001500
800000001500
800000001500
800000001500
800000001500
800000001500
800000001500
800000001500
800000001500
800000001500
800000001500
800000001500
800000001500
800000001500
800000001500
800000001500
800000001500
800000001500
800000001700
800000001400
800000001c00
800000001000
fffffffff000
ENDCHAR
STARTCHAR f
ENCODING -1 102
SWIDTH 0 0
DWIDTH 6 0
BBX 5 10 1 -1
BITMAP
3800
4800
4000
4000
f000
4000
4000
4000
4000
e000
ENDCHAR
STARTCHAR g
ENCODING -1 103
SWIDTH 0 0
DWIDTH 8 0
BBX 6 10 1 -4
BITMAP
7c00
8800
8800
8800
7000
8000
7800
8400
8400
7800
ENDCHAR
STARTCHAR h
ENCODING -1 104
SWIDTH 0 0
DWIDTH 9 0
BBX 7 10 1 -1
BITMAP
4000
c000
4000
5800
6400
4400
4400
4400
4400
ee00
ENDCHAR
STARTCHAR i
ENCODING -1 105
SWIDTH 0 0
DWIDTH 5 0
BBX 3 10 1 -1
BITMAP
4000
4000
0000
4000
c000
4000
4000
4000
4000
e000
ENDCHAR
STARTCHAR j
ENCODING -1 106
SWIDTH 0 0
DWIDTH 4 0
BBX 3 13 0 -4
BITMAP
2000
2000
0000
2000
6000
2000
2000
2000
2000
2000
2000
a000
c000
ENDCHAR
STARTCHAR k
ENCODING -1 107
SWIDTH 0 0
DWIDTH 8 0
BBX 7 10 1 -1
BITMAP
4000
c000
4000
4c00
4800
5000
6000
5000
4800
ee00
ENDCHAR
STARTCHAR l
ENCODING -1 108
SWIDTH 0 0
DWIDTH 5 0
BBX 3 10 1 -1
BITMAP
4000
c000
4000
4000
4000
4000
4000
4000
4000
e000
ENDCHAR
STARTCHAR m
ENCODING -1 109
SWIDTH 0 0
DWIDTH 22 0
BBX 41 34 1 0
BITMAP
3ffffffffe00
400000000100
800000000080
9ffffffffc80
900000000480
900000000480
900000000480
900000000480
900000000480
900000000480
900000000480
900000000480
900000000480
900000000480
900000000480
900000000480
900000000480
900000000480
900000000480
900000000480
900000000480
900000000480
900000000480
900000000480
900000000480
900000000480
9ffffffffc80
800000000080
860000003080
890000004880
890000004880
860000003080
400000000100
3ffffffffe00
ENDCHAR
STARTCHAR n
ENCODING -1 110
SWIDTH 0 0
DWIDTH 9 0
BBX 7 7 1 -1
BITMAP
5800
e400
4400
4400
4400
4400
ee00
ENDCHAR
STARTCHAR o
ENCODING -1 111
SWIDTH 0 0
DWIDTH 32 0
BBX 36 56 -2 -54
BITMAP
fffffffff000
fffffffff000
c00000003000
c00000003000
c00000003000
c00000003000
c00000003000
c00000003000
c00000003000
c00000003000
c00000003000
c00000003000
c00000003000
c00000003000
c00000003000
c00000003000
c00000003000
c00000003000
c00000003000
c00000003000
c00000003000
c00000003000
c00000003000
c00000003000
c00000003000
c00000003000
c000000c3000
c00000123000
c00000123000
c000000c3000
c00000003000
c00000003000
c00000003000
c00000003000
c00000003000
c00000003000
c00000003000
c00000003000
c00000003000
c00000003000
c00000003000
c00000003000
c00000003000
c00000003000
c00000003000
c00000003000
c00000003000
c00000003000
c00000003000
c00000003000
c00000003000
c00000003000
c00000003000
c00000003000
fffffffff000
fffffffff000
ENDCHAR
STARTCHAR p
ENCODING -1 112
SWIDTH 0 0
DWIDTH 9 0
BBX 35 21 -18 -12
BITMAP
00007ff80000
000080100000
000100200000
00027e400000
000200400000
0004f8800000
000801000000
0073f3ffc000
019002006000
06e00781a000
18ffff862000
600000182000
7fffffe02000
800000202000
800000202000
800000206000
80000021c000
800000260000
800000380000
ffffffe00000
380007000000
ENDCHAR
STARTCHAR q
ENCODING -1 113
SWIDTH 0 0
DWIDTH 8 0
BBX 7 10 1 -4
BITMAP
7400
8c00
8400
8400
8400
4c00
3400
0400
0400
0e00
ENDCHAR
STARTCHAR r
ENCODING -1 114
SWIDTH 0 0
DWIDTH 6 0
BBX 25 37 0 -4
BITMAP
40200000
40200000
58280000
54a80000
556eae00
552aaa00
58eeee00
40200200
40200200
40200c00
40200000
7fe00000
20400000
20400000
20400000
20200000
20100000
200fe000
40001000
40001000
40001000
fffff800
edb6d800
00000000
00000000
00000000
00000080
00000100
00fc0200
07031c00
1800a200
60004200
80000200
7ffffd00
02aa8000
02aa8000
05550000
ENDCHAR
STARTCHAR s
ENCODING -1 115
SWIDTH 0 0
DWIDTH 6 0
BBX 4 7 1 -1
BITMAP
7000
9000
8000
6000
1000
9000
e000
ENDCHAR
STARTCHAR t
ENCODING -1 116
SWIDTH 0 0
DWIDTH 6 0
BBX 38 46 -19 -23
BITMAP
0003ff000000
007c00f80000
038000070000
0c03fe00c000
300306003000
c00306000c00
b00000003400
8c000000c400
838000070400
707c00f83800
4c03ff00c800
438000070800
407c00f80800
4203ff010800
421000210800
421084210800
421084210800
421084210800
421084210800
421084210800
421084210800
421084210800
421084210800
421084210800
421084210800
421084210800
421084210800
421084210800
421084210800
421084210800
421084210800
421084210800
421084210800
421084210800
421084210800
421084210800
421084210800
421084210800
421084210800
421084210800
401084200800
300084003000
0c000000c000
038000070000
007c00f80000
0003ff000000
ENDCHAR
STARTCHAR u
ENCODING -1 117
SWIDTH 0 0
DWIDTH 9 0
BBX 7 7 1 -1
BITMAP
cc00
4400
4400
4400
4400
4e00
3400
ENDCHAR
STARTCHAR v
ENCODING -1 118
SWIDTH 0 0
DWIDTH 9 0
BBX 7 7 1 -1
BITMAP
ee00
4400
4400
2800
2800
1000
1000
ENDCHAR
STARTCHAR w
ENCODING -1 119
SWIDTH 0 0
DWIDTH 11 0
BBX 11 7 0 -1
BITMAP
eee0
4440
4440
2a80
2a80
1100
1100
ENDCHAR
STARTCHAR x
ENCODING -1 120
SWIDTH 0 0
DWIDTH 8 0
BBX 45 18 -22 -8
BITMAP
00000ffffff8
000070000078
000380000388
001c00001c08
003fffffe008
002000002008
002000002008
01e319c8a068
0e24a52523e8
702425252f88
ffe425c22c08
7024a5022008
0e2319022008
01e000002008
002000002070
002000002380
002000003c00
003fffffe000
ENDCHAR
STARTCHAR y
ENCODING -1 121
SWIDTH 0 0
DWIDTH 8 0
BBX 7 9 1 -3
BITMAP
ee00
4400
4400
2800
2800
1000
1000
a000
c000
ENDCHAR
STARTCHAR z
ENCODING -1 122
SWIDTH 0 0
DWIDTH 7 0
BBX 32 46 -17 -23
BITMAP
00000040
000000c0
00000180
00000280
00000500
00000900
00001200
00002200
00004400
00008400
00008800
00010800
00021000
00041000
00042000
00082000
00102000
00104000
00204020
00204020
00408222
00408124
008880a8
00988000
013107af
01610020
026100a8
02610124
04220222
04320020
08120020
08020020
10020020
10040020
21040020
21040020
4fc40020
43840020
87840020
84880020
80080020
80080020
c0080020
30080020
0c300020
03c00000
ENDCHAR
STARTCHAR {
ENCODING -1 123
SWIDTH 0 0
DWIDTH 8 0
BBX 6 13 1 -4
BITMAP
1c00
2000
2000
2000
2000
2000
c000
2000
2000
2000
2000
2000
1c00
ENDCHAR
STARTCHAR |
ENCODING -1 124
SWIDTH 0 0
DWIDTH 5 0
BBX 1 13 2 -4
BITMAP
8000
8000
8000
8000
8000
8000
8000
8000
8000
8000
8000
8000
8000
ENDCHAR
STARTCHAR }
ENCODING -1 125
SWIDTH 0 0
DWIDTH 8 0
BBX 6 13 1 -4
BITMAP
e000
1000
1000
1000
1000
1000
0c00
1000
1000
1000
1000
1000
e000
ENDCHAR
STARTCHAR ~
ENCODING -1 126
SWIDTH 0 0
DWIDTH 8 0
BBX 41 53 -18 -29
BITMAP
000000040000
000000040000
000000040000
200001040000
7fffff840000
c00000c40000
52f45e840000
5296d0840000
529550840000
5e945c840000
529450840000
529450840000
52f45e840000
c00000c40000
7fffff840000
200001040000
000000040000
000000040000
000000040000
000000040000
0001fe040000
000143040000
000120840000
00013f840000
000121840000
3fff21fc0000
38013f820000
3c0121010000
360121008000
3300a1004000
31807f0c2000
30c0000c1000
3060ffe60800
30307fe00400
30183ff00200
300800000100
300fffffff80
300fffffff80
300c00000180
300c00000180
300c00000180
300c00000180
100c00000180
000c00000180
000c00000180
000c00000180
000c00000180
000c00000180
000c00000180
000c00000180
000c00000180
000c00000180
000400000180
ENDCHAR
ENDFONT
